<svg width="48" height="48" viewBox="0 0 48 48" fill="none" xmlns="http://www.w3.org/2000/svg">
  <defs>
    <!-- Enhanced main gradient for the house -->
    <linearGradient id="houseGradientSmall" x1="0%" y1="0%" x2="100%" y2="100%">
      <stop offset="0%" style="stop-color:#bc9e7b;stop-opacity:1" />
      <stop offset="30%" style="stop-color:#d4af8c;stop-opacity:1" />
      <stop offset="70%" style="stop-color:#a67c52;stop-opacity:1" />
      <stop offset="100%" style="stop-color:#8b6f47;stop-opacity:1" />
    </linearGradient>
    
    <!-- Modern handshake gradient -->
    <linearGradient id="handshakeGradientSmall" x1="0%" y1="0%" x2="100%" y2="100%">
      <stop offset="0%" style="stop-color:#ffffff;stop-opacity:1" />
      <stop offset="50%" style="stop-color:#f8fafc;stop-opacity:1" />
      <stop offset="100%" style="stop-color:#e2e8f0;stop-opacity:1" />
    </linearGradient>
    
    <!-- Enhanced background glow -->
    <radialGradient id="glowGradientSmall" cx="50%" cy="50%" r="50%">
      <stop offset="0%" style="stop-color:#bc9e7b;stop-opacity:0.2" />
      <stop offset="70%" style="stop-color:#bc9e7b;stop-opacity:0.08" />
      <stop offset="100%" style="stop-color:#bc9e7b;stop-opacity:0" />
    </radialGradient>
  </defs>
  
  <!-- Enhanced background -->
  <circle cx="24" cy="24" r="23" fill="url(#glowGradientSmall)"/>
  
  <!-- Modern house structure -->
  <path d="M10 30L24 18L38 30V40C38 41.1046 37.1046 42 36 42H12C10.8954 42 10 41.1046 10 40V30Z" 
        fill="url(#houseGradientSmall)" 
        stroke="#422d2a" 
        stroke-width="2"/>
  
  <!-- Modern house door -->
  <rect x="21" y="34" width="6" height="8" fill="#422d2a" rx="1.5"/>
  <circle cx="25" cy="38" r="0.8" fill="#bc9e7b"/>
  
  <!-- Enhanced windows -->
  <rect x="15" y="32" width="4" height="4" fill="#422d2a" rx="1"/>
  <rect x="29" y="32" width="4" height="4" fill="#422d2a" rx="1"/>
  
  <!-- Window frames -->
  <rect x="15" y="32" width="4" height="4" fill="none" stroke="#bc9e7b" stroke-width="0.5" rx="1"/>
  <rect x="29" y="32" width="4" height="4" fill="none" stroke="#bc9e7b" stroke-width="0.5" rx="1"/>
  
  <!-- Modern handshake -->
  <g transform="translate(24, 36)">
    <!-- Left hand -->
    <path d="M-4 -1C-4 -2 -3 -3 -2 -3C-1 -3 0 -2 0 -1C0 0 1 1 2 1C3 1 4 0 4 -1" 
          stroke="url(#handshakeGradientSmall)" 
          stroke-width="1.5" 
          fill="none" 
          stroke-linecap="round"
          stroke-linejoin="round"/>
    
    <!-- Right hand -->
    <path d="M4 -1C4 -2 3 -3 2 -3C1 -3 0 -2 0 -1C0 0 -1 1 -2 1C-3 1 -4 0 -4 -1" 
          stroke="url(#handshakeGradientSmall)" 
          stroke-width="1.5" 
          fill="none" 
          stroke-linecap="round"
          stroke-linejoin="round"/>
    
    <!-- Connection line -->
    <path d="M-3 -1L3 -1" 
          stroke="url(#handshakeGradientSmall)" 
          stroke-width="1.2" 
          stroke-linecap="round"/>
  </g>
  
  <!-- Modern decorative elements -->
  <circle cx="14" cy="20" r="1" fill="#bc9e7b" opacity="0.8"/>
  <circle cx="34" cy="22" r="0.8" fill="#d4af8c" opacity="0.9"/>
</svg>