<svg width="48" height="48" viewBox="0 0 48 48" fill="none" xmlns="http://www.w3.org/2000/svg">
  <defs>
    <!-- Main gradient for the house -->
    <linearGradient id="houseGradientSmall" x1="0%" y1="0%" x2="100%" y2="100%">
      <stop offset="0%" style="stop-color:#bc9e7b;stop-opacity:1" />
      <stop offset="50%" style="stop-color:#d4af8c;stop-opacity:1" />
      <stop offset="100%" style="stop-color:#936f45;stop-opacity:1" />
    </linearGradient>
    
    <!-- Handshake gradient -->
    <linearGradient id="handshakeGradientSmall" x1="0%" y1="0%" x2="100%" y2="100%">
      <stop offset="0%" style="stop-color:#422d2a;stop-opacity:1" />
      <stop offset="100%" style="stop-color:#6b513f;stop-opacity:1" />
    </linearGradient>
    
    <!-- Background glow -->
    <radialGradient id="glowGradientSmall" cx="50%" cy="50%" r="50%">
      <stop offset="0%" style="stop-color:#bc9e7b;stop-opacity:0.15" />
      <stop offset="100%" style="stop-color:#bc9e7b;stop-opacity:0" />
    </radialGradient>
  </defs>
  
  <!-- Background glow -->
  <circle cx="24" cy="24" r="22" fill="url(#glowGradientSmall)"/>
  
  <!-- House structure with gradient -->
  <path d="M8 28L24 14L40 28V40C40 41.1046 39.1046 42 38 42H10C8.89543 42 8 41.1046 8 40V28Z" 
        fill="url(#houseGradientSmall)" 
        stroke="#422d2a" 
        stroke-width="1.5"/>
  
  <!-- House door -->
  <rect x="20" y="32" width="8" height="10" fill="#422d2a" rx="1"/>
  <circle cx="26" cy="37" r="0.8" fill="#bc9e7b"/>
  
  <!-- Windows -->
  <rect x="14" y="30" width="3" height="3" fill="#422d2a" rx="0.5"/>
  <rect x="31" y="30" width="3" height="3" fill="#422d2a" rx="0.5"/>
  
  <!-- Handshake inside house -->
  <g transform="translate(24, 34)">
    <!-- Left hand -->
    <path d="M-3 0C-3 -1 -2.5 -2 -1.5 -2C-0.5 -2 0 -1 0 0C0 1 1 2 2 2C3 2 3 1 3 0" 
          stroke="url(#handshakeGradientSmall)" 
          stroke-width="1.2" 
          fill="none" 
          stroke-linecap="round"/>
    
    <!-- Right hand -->
    <path d="M3 0C3 -1 2.5 -2 1.5 -2C0.5 -2 0 -1 0 0C0 1 -1 2 -2 2C-3 2 -3 1 -3 0" 
          stroke="url(#handshakeGradientSmall)" 
          stroke-width="1.2" 
          fill="none" 
          stroke-linecap="round"/>
    
    <!-- Connection line -->
    <path d="M-2.5 0L2.5 0" 
          stroke="url(#handshakeGradientSmall)" 
          stroke-width="1" 
          stroke-linecap="round"/>
  </g>
</svg>