<svg width="120" height="120" viewBox="0 0 120 120" fill="none" xmlns="http://www.w3.org/2000/svg">
  <defs>
    <!-- Modern gradient for the main shape -->
    <linearGradient id="modernGradient" x1="0%" y1="0%" x2="100%" y2="100%">
      <stop offset="0%" style="stop-color:#bc9e7b;stop-opacity:1" />
      <stop offset="50%" style="stop-color:#8b6f47;stop-opacity:1" />
      <stop offset="100%" style="stop-color:#6b5b47;stop-opacity:1" />
    </linearGradient>
    
    <!-- White accent gradient -->
    <linearGradient id="whiteGradient" x1="0%" y1="0%" x2="100%" y2="100%">
      <stop offset="0%" style="stop-color:#ffffff;stop-opacity:1" />
      <stop offset="100%" style="stop-color:#f8fafc;stop-opacity:1" />
    </linearGradient>
    
    <!-- Background circle gradient -->
    <radialGradient id="bgGradient" cx="50%" cy="50%" r="50%">
      <stop offset="0%" style="stop-color:#f8fafc;stop-opacity:1" />
      <stop offset="100%" style="stop-color:#e2e8f0;stop-opacity:1" />
    </radialGradient>
    
    <!-- Modern shadow -->
    <filter id="modernDropShadow" x="-50%" y="-50%" width="200%" height="200%">
      <feDropShadow dx="0" dy="4" stdDeviation="8" flood-color="#422d2a" flood-opacity="0.15"/>
    </filter>
  </defs>
  
  <!-- Background circle -->
  <circle cx="60" cy="60" r="58" fill="url(#bgGradient)"/>
  
  <!-- Modern house icon -->
  <g transform="translate(60, 60)">
    <!-- House base -->
    <rect x="-25" y="-10" width="50" height="35" fill="url(#modernGradient)" rx="4" filter="url(#modernDropShadow)"/>
    
    <!-- House roof -->
    <path d="M-30 -20L0 -35L30 -20L25 -20L0 -30L-25 -20Z" fill="url(#modernGradient)" filter="url(#modernDropShadow)"/>
    
    <!-- Door -->
    <rect x="-8" y="5" width="16" height="20" fill="url(#whiteGradient)" rx="2"/>
    <circle cx="4" cy="15" r="1" fill="#8b6f47"/>
    
    <!-- Windows -->
    <rect x="-20" y="-5" width="8" height="8" fill="url(#whiteGradient)" rx="1"/>
    <rect x="12" y="-5" width="8" height="8" fill="url(#whiteGradient)" rx="1"/>
    
    <!-- Handshake symbol -->
    <g transform="translate(0, 0)">
      <!-- Left hand -->
      <path d="M-12 -2C-12 -4 -10 -6 -8 -6C-6 -6 -4 -4 -4 -2C-4 0 -2 2 0 2C2 2 4 0 4 -2C4 -4 6 -6 8 -6C10 -6 12 -4 12 -2" 
            stroke="url(#whiteGradient)" 
            stroke-width="2.5" 
            fill="none" 
            stroke-linecap="round"/>
      
      <!-- Right hand -->
      <path d="M12 -2C12 -4 10 -6 8 -6C6 -6 4 -4 4 -2C4 0 2 2 0 2C-2 2 -4 0 -4 -2C-4 -4 -6 -6 -8 -6C-10 -6 -12 -4 -12 -2" 
            stroke="url(#whiteGradient)" 
            stroke-width="2.5" 
            fill="none" 
            stroke-linecap="round"/>
      
      <!-- Connection -->
      <path d="M-10 -2L10 -2" stroke="url(#whiteGradient)" stroke-width="2" stroke-linecap="round"/>
    </g>
  </g>
  
  <!-- Modern accent dots -->
  <circle cx="25" cy="25" r="2" fill="#bc9e7b" opacity="0.6"/>
  <circle cx="95" cy="30" r="1.5" fill="#8b6f47" opacity="0.7"/>
  <circle cx="20" cy="90" r="1" fill="#6b5b47" opacity="0.5"/>
</svg>
